<?xml version="1.0" encoding="UTF-8" standalone="no"?>
<!-- Created with Inkscape (http://www.inkscape.org/) -->

<svg
   version="1.1"
   id="svg1"
   width="349"
   height="179"
   viewBox="0 0 349 179"
   sodipodi:docname="Terrain Bad2.svg"
   inkscape:version="1.4.1 (93de688d07, 2025-03-30)"
   xmlns:inkscape="http://www.inkscape.org/namespaces/inkscape"
   xmlns:sodipodi="http://sodipodi.sourceforge.net/DTD/sodipodi-0.dtd"
   xmlns="http://www.w3.org/2000/svg"
   xmlns:svg="http://www.w3.org/2000/svg">
  <defs
     id="defs1">
    <linearGradient
       id="linearGradient55">
      <stop
         style="stop-color:#a6ddf2;stop-opacity:1;"
         offset="0"
         id="stop59" />
      <stop
         style="stop-color:#396f41;stop-opacity:0;"
         offset="1"
         id="stop60" />
    </linearGradient>
    <linearGradient
       id="linearGradient55-1">
      <stop
         style="stop-color:#467f92;stop-opacity:1;"
         offset="0"
         id="stop57" />
      <stop
         style="stop-color:#396f41;stop-opacity:0;"
         offset="1"
         id="stop58" />
    </linearGradient>
  </defs>
  <sodipodi:namedview
     id="namedview1"
     pagecolor="#ffffff"
     bordercolor="#000000"
     borderopacity="0.25"
     inkscape:showpageshadow="2"
     inkscape:pageopacity="0.0"
     inkscape:pagecheckerboard="0"
     inkscape:deskcolor="#d1d1d1"
     inkscape:zoom="2"
     inkscape:cx="118.75"
     inkscape:cy="95.75"
     inkscape:window-width="1920"
     inkscape:window-height="1008"
     inkscape:window-x="0"
     inkscape:window-y="44"
     inkscape:window-maximized="1"
     inkscape:current-layer="g1"
     showgrid="true">
    <inkscape:grid
       id="grid26"
       units="px"
       originx="0"
       originy="0"
       spacingx="1"
       spacingy="1"
       empcolor="#0099e5"
       empopacity="0.30196078"
       color="#0099e5"
       opacity="0.14901961"
       empspacing="5"
       enabled="true"
       visible="true" />
  </sodipodi:namedview>
  <g
     inkscape:groupmode="layer"
     inkscape:label="Image"
     id="g1">
    <path
       style="display:inline;stroke-width:0.977359"
       d="M 2.7403876,2.2799036 H 345.55837 V 176.29573 H 2.7403876 Z"
       id="path10"
       inkscape:label="Fond Noir" />
    <g
       id="g4"
       transform="translate(0.07306016,0.05031447)"
       inkscape:label="Terrains">
      <path
         id="path11"
         style="fill:#ffacac"
         d="m 318.69647,145.00047 v 17 h 13.30274 v -17 z m -142.69726,0 v 17 h 140.69726 v -17 z M 176,143 V 91 h 65 v 52 z M 318.69647,36.000467 v 53 h 13.30274 v -53 z m 0,55 v 52.000003 h 13.30274 V 91.000467 Z m -75.69726,-55 V 143.00047 h 73.69726 V 36.000467 Z M 176,89 V 36 h 65 V 89 Z M 318.69647,17.000467 v 17 h 13.30274 v -17 z m -142.69726,0 v 17 h 140.69726 v -17 z" />
      <path
         id="path20"
         style="fill:#a8ffff"
         d="m 32.30194,17.000467 v 17 h 140.69727 v -17 z m -15.302735,0 v 17 H 30.30194 v -17 z m 15.302735,19 V 143.00047 h 73.69727 V 36.000467 Z m -15.302735,0 v 26.5 26.5 H 30.30194 v -53 z m 0,55 V 143.00047 H 30.30194 V 91.000467 Z m 91.000005,-55 v 53 h 65 v -53 z m 0,55 v 52.000003 h 65 V 91.000467 Z M 16.999205,145.00047 v 17 H 30.30194 v -17 z m 15.302735,0 v 17 h 140.69727 v -17 z" />
      <path
         style="opacity:1;mix-blend-mode:normal;fill:#396f41;fill-opacity:1"
         d="M 0,179 V 0 H 349 V 179 Z M 334,164 V 15 H 15 v 149 z"
         id="path4"
         sodipodi:nodetypes="cccccccccc" />
      <path
         d="m 175.48381,15.050314 h -1.71311 l -0.0369,148.999996 h 1.75002 z"
         style="opacity:0.562162;fill:#faf6e6;fill-opacity:1;stroke-width:0.763767"
         id="path1"
         inkscape:label="Filet"
         transform="translate(-0.07306016,-0.05031447)" />
    </g>
  </g>
</svg>